<?xml version="1.0" encoding="UTF-8" standalone="no"?>
<!-- Generator: Adobe Illustrator 17.1.0, SVG Export Plug-In . SVG Version: 6.00 Build 0)  -->

<svg
   xmlns:dc="http://purl.org/dc/elements/1.1/"
   xmlns:cc="http://creativecommons.org/ns#"
   xmlns:rdf="http://www.w3.org/1999/02/22-rdf-syntax-ns#"
   xmlns:svg="http://www.w3.org/2000/svg"
   xmlns="http://www.w3.org/2000/svg"
   xmlns:sodipodi="http://sodipodi.sourceforge.net/DTD/sodipodi-0.dtd"
   xmlns:inkscape="http://www.inkscape.org/namespaces/inkscape"
   version="1.1"
   id="Layer_1"
   x="0px"
   y="0px"
   viewBox="0 0 300 80.7"
   enable-background="new 0 0 300 80.7"
   xml:space="preserve"
   inkscape:version="0.48.4 r9939"
   width="100%"
   height="100%"
   sodipodi:docname="logo.svg"><metadata
   id="metadata3029"><rdf:RDF><cc:Work
       rdf:about=""><dc:format>image/svg+xml</dc:format><dc:type
         rdf:resource="http://purl.org/dc/dcmitype/StillImage" /></cc:Work></rdf:RDF></metadata><defs
   id="defs3027" /><sodipodi:namedview
   pagecolor="#ffffff"
   bordercolor="#666666"
   borderopacity="1"
   objecttolerance="10"
   gridtolerance="10"
   guidetolerance="10"
   inkscape:pageopacity="0"
   inkscape:pageshadow="2"
   inkscape:window-width="1280"
   inkscape:window-height="961"
   id="namedview3025"
   showgrid="false"
   inkscape:zoom="1.01"
   inkscape:cx="36.138614"
   inkscape:cy="79.95396"
   inkscape:window-x="-8"
   inkscape:window-y="-8"
   inkscape:window-maximized="1"
   inkscape:current-layer="Layer_1" />
<g
   id="g3009">
	<path
   clip-rule="evenodd"
   d="M45,42.9c0-0.9-0.5-1.7-1.2-2.1L23.7,29.2   c-0.3-0.2-0.7-0.3-1.1-0.3c0,0-0.2,0-0.2,0c-0.4,0-0.8,0.1-1.1,0.3L1.2,40.8C0.5,41.2,0,42,0,42.9L0,74c0,0.4,0.2,0.8,0.6,1   c0.4,0.2,0.8,0.2,1.2,0l11.9-6.8c0.8-0.4,1.2-1.2,1.2-2.1V51.6c0-0.9,0.5-1.7,1.2-2.1l5.1-2.9c0.4-0.2,0.8-0.3,1.2-0.3   c0.4,0,0.8,0.1,1.2,0.3l5.1,2.9c0.8,0.4,1.2,1.2,1.2,2.1v14.5c0,0.9,0.5,1.7,1.2,2.1l11.9,6.8c0.4,0.2,0.8,0.2,1.2,0   c0.4-0.2,0.6-0.6,0.6-1L45,42.9z"
   id="path3011"
   fill-rule="evenodd"
   fill="#FFFFFF" />
	<path
   clip-rule="evenodd"
   d="M152.2,0.2c-0.4-0.2-0.8-0.2-1.2,0c-0.4,0.2-0.6,0.6-0.6,1V32   c0,0.3-0.2,0.6-0.4,0.7c-0.3,0.2-0.6,0.2-0.8,0l-5-2.9c-0.7-0.4-1.7-0.4-2.4,0l-20.1,11.6c-0.8,0.4-1.2,1.2-1.2,2.1v23.2   c0,0.9,0.5,1.7,1.2,2.1l20.1,11.6c0.8,0.4,1.7,0.4,2.4,0l20.1-11.6c0.7-0.4,1.2-1.2,1.2-2.1V8.9c0-0.9-0.5-1.7-1.2-2.1L152.2,0.2z    M150.3,59.1c0,0.2-0.1,0.4-0.3,0.5l-6.9,4c-0.2,0.1-0.4,0.1-0.6,0l-6.9-4c-0.2-0.1-0.3-0.3-0.3-0.5v-8c0-0.2,0.1-0.4,0.3-0.5   l6.9-4c0.2-0.1,0.4-0.1,0.6,0l6.9,4c0.2,0.1,0.3,0.3,0.3,0.5V59.1z"
   id="path3013"
   fill-rule="evenodd"
   fill="#FFFFFF" />
	<path
   clip-rule="evenodd"
   d="M224,50.9c0.7-0.4,1.2-1.2,1.2-2.1v-5.6c0-0.9-0.5-1.7-1.2-2.1   L204,29.5c-0.8-0.4-1.7-0.4-2.4,0l-20.1,11.6c-0.7,0.4-1.2,1.2-1.2,2.1v23.2c0,0.9,0.5,1.7,1.2,2.1l19.9,11.4   c0.7,0.4,1.6,0.4,2.4,0l12.1-6.7c0.4-0.2,0.6-0.6,0.6-1.1c0-0.4-0.2-0.8-0.6-1.1l-20.2-11.6c-0.4-0.2-0.6-0.6-0.6-1.1v-7.3   c0-0.4,0.2-0.8,0.6-1.1l6.3-3.6c0.4-0.2,0.8-0.2,1.2,0l6.3,3.6c0.4,0.2,0.6,0.6,0.6,1.1v5.7c0,0.4,0.2,0.8,0.6,1   c0.4,0.2,0.8,0.2,1.2,0L224,50.9z"
   id="path3015"
   fill-rule="evenodd"
   fill="#FFFFFF" />
	<path
   clip-rule="evenodd"
   d="M81.5,29.4c0.7-0.4,1.7-0.4,2.4,0L104,41c0.8,0.4,1.2,1.2,1.2,2.1   v23.2c0,0.9-0.5,1.7-1.2,2.1L83.9,80c-0.8,0.4-1.7,0.4-2.4,0L61.4,68.4c-0.7-0.4-1.2-1.2-1.2-2.1V43.1c0-0.9,0.5-1.7,1.2-2.1   L81.5,29.4z"
   id="path3017"
   fill-rule="evenodd"
   fill="#80BD01" />
	
	
	
	<path
   clip-rule="evenodd"
   d="M202.5,49.8c0.1-0.1,0.3-0.1,0.5,0l3.9,2.2   c0.1,0.1,0.2,0.2,0.2,0.4v4.4c0,0.2-0.1,0.3-0.2,0.4l-3.9,2.2c-0.1,0.1-0.3,0.1-0.5,0l-3.8-2.2c-0.1-0.1-0.2-0.2-0.2-0.4v-4.4   c0-0.2,0.1-0.3,0.2-0.4L202.5,49.8z"
   id="path3023"
   fill-rule="evenodd"
   fill="#80BD01" />
</g>
</svg>